<svg xmlns="http://www.w3.org/2000/svg" width="900" height="410" viewBox="0 0 900 410">
  <style>
    .title { font: 600 20px 'Segoe UI', Ubuntu, Sans-Serif; fill: #c9d1d9; }
    .stat-label { font: 400 13px 'Segoe UI', Ubuntu, Sans-Serif; fill: #8b949e; }
    .stat-value { font: 600 18px 'Segoe UI', Ubuntu, Sans-Serif; fill: #c9d1d9; }
    .stat-value-small { font: 600 14px 'Segoe UI', Ubuntu, Sans-Serif; fill: #c9d1d9; }
    .section-title { font: 600 14px 'Segoe UI', Ubuntu, Sans-Serif; fill: #8b949e; }
    .model-label { font: 400 12px 'Segoe UI', Ubuntu, Sans-Serif; fill: #8b949e; }
    .footer { font: 400 11px 'Segoe UI', Ubuntu, Sans-Serif; fill: #8b949e; }
  </style>

  <!-- Background -->
  <rect x="0.5" y="0.5" width="899" height="409" rx="4.5" fill="#0d1117" stroke="#30363d"/>

  <!-- Title -->
  <text x="25" y="35" class="title">🎸 VibeDashboard</text>

  <!-- Stats Row -->
  <g transform="translate(25, 60)">
    <g>
      <text class="stat-label">Total Tokens</text>
      <text y="22" class="stat-value">3.8B</text>
    </g>
    <g transform="translate(150, 0)">
      <text class="stat-label">Total Cost</text>
      <text y="22" class="stat-value">$2702.91</text>
    </g>
    <g transform="translate(320, 0)">
      <text class="stat-label">📅 Today</text>
      <text y="22" class="stat-value-small">0 / $0.00</text>
    </g>
    <g transform="translate(510, 0)">
      <text class="stat-label">📊 This Week</text>
      <text y="22" class="stat-value-small">0 / $0.00</text>
    </g>
    <g transform="translate(710, 0)">
      <text class="stat-label">📈 This Month</text>
      <text y="22" class="stat-value-small">9M / $11.51</text>
    </g>
  </g>
  <!-- Weekly Usage Chart -->
  <g transform="translate(25, 105)">
    <rect x="0" y="0" width="850" height="100" rx="4" fill="#161b22"/>
    <text x="45" y="15" text-anchor="end" class="model-label">493.6M</text>
    <text x="45" y="52.5" text-anchor="end" class="model-label">246.8M</text>
    <text x="45" y="90" text-anchor="end" class="model-label">0</text>
    <line x1="50" y1="5" x2="50" y2="80" stroke="#30363d" stroke-width="1"/>
    <rect x="60" y="38.35242070050235" width="49" height="41.64757929949765" rx="3" fill="#58a6ff"/>
    <text x="84.5" y="95" text-anchor="middle" class="model-label">04/19</text>
    <rect x="115" y="53.079144093649035" width="49" height="26.920855906350965" rx="3" fill="#58a6ff"/>
    <text x="139.5" y="95" text-anchor="middle" class="model-label">04/20</text>
    <rect x="170" y="5" width="49" height="75" rx="3" fill="#58a6ff"/>
    <text x="194.5" y="95" text-anchor="middle" class="model-label">04/21</text>
    <rect x="225" y="37.22712385575672" width="49" height="42.77287614424328" rx="3" fill="#58a6ff"/>
    <text x="249.5" y="95" text-anchor="middle" class="model-label">04/22</text>
    <rect x="280" y="77.71138976236254" width="49" height="2.28861023763746" rx="3" fill="#58a6ff"/>
    <text x="304.5" y="95" text-anchor="middle" class="model-label">04/23</text>
    <rect x="335" y="75.93136876144891" width="49" height="4.0686312385510846" rx="3" fill="#58a6ff"/>
    <text x="359.5" y="95" text-anchor="middle" class="model-label">04/24</text>
    <rect x="390" y="49.75045851373481" width="49" height="30.24954148626519" rx="3" fill="#58a6ff"/>
    <text x="414.5" y="95" text-anchor="middle" class="model-label">04/25</text>
    <rect x="445" y="24.878721871236834" width="49" height="55.121278128763166" rx="3" fill="#58a6ff"/>
    <text x="469.5" y="95" text-anchor="middle" class="model-label">04/26</text>
    <rect x="500" y="61.51596556858235" width="49" height="18.484034431417648" rx="3" fill="#58a6ff"/>
    <text x="524.5" y="95" text-anchor="middle" class="model-label">04/27</text>
    <rect x="555" y="78" width="49" height="2" rx="3" fill="#58a6ff"/>
    <text x="579.5" y="95" text-anchor="middle" class="model-label">06/04</text>
    <rect x="610" y="78" width="49" height="2" rx="3" fill="#58a6ff"/>
    <text x="634.5" y="95" text-anchor="middle" class="model-label">06/09</text>
    <rect x="665" y="78" width="49" height="2" rx="3" fill="#58a6ff"/>
    <text x="689.5" y="95" text-anchor="middle" class="model-label">06/18</text>
    <rect x="720" y="78" width="49" height="2" rx="3" fill="#58a6ff"/>
    <text x="744.5" y="95" text-anchor="middle" class="model-label">07/13</text>
    <rect x="775" y="78" width="49" height="2" rx="3" fill="#58a6ff"/>
    <text x="799.5" y="95" text-anchor="middle" class="model-label">07/16</text>
  </g>
  <!-- Model Breakdown -->
  <g transform="translate(25, 220)">
    <text class="section-title">🤖 Model Usage</text>
    <g transform="translate(0, 18)">
      <rect x="0" y="2" width="670" height="10" rx="3" fill="#21262d"/>
      <rect x="0" y="2" width="361.8" height="10" rx="3" fill="#58a6ff"/>
      <text x="680" y="11" class="model-label">4-7 54% ($1469.85)</text>
    </g>
    <g transform="translate(0, 38)">
      <rect x="0" y="2" width="670" height="10" rx="3" fill="#21262d"/>
      <rect x="0" y="2" width="274.7" height="10" rx="3" fill="#58a6ff"/>
      <text x="680" y="11" class="model-label">4-6 41% ($1101.83)</text>
    </g>
    <g transform="translate(0, 58)">
      <rect x="0" y="2" width="670" height="10" rx="3" fill="#21262d"/>
      <rect x="0" y="2" width="13.4" height="10" rx="3" fill="#58a6ff"/>
      <text x="680" y="11" class="model-label">opus-4.5 2% ($48.11)</text>
    </g>
    <g transform="translate(0, 78)">
      <rect x="0" y="2" width="670" height="10" rx="3" fill="#21262d"/>
      <rect x="0" y="2" width="6.7" height="10" rx="3" fill="#58a6ff"/>
      <text x="680" y="11" class="model-label">4-6 1% ($35.20)</text>
    </g>
    <g transform="translate(0, 98)">
      <rect x="0" y="2" width="670" height="10" rx="3" fill="#21262d"/>
      <rect x="0" y="2" width="6.7" height="10" rx="3" fill="#58a6ff"/>
      <text x="680" y="11" class="model-label">haiku-4.5 1% ($26.88)</text>
    </g>
  </g>
  <text x="25" y="390" class="footer">Updated: 2026-08-03 19:44 UTC • Powered by <a href="https://github.com/mjyoo2/VibeDashboard" target="_blank">VibeDashboard</a></text>
</svg>