<svg xmlns="http://www.w3.org/2000/svg" width="900" height="410" viewBox="0 0 900 410">
  <style>
    .title { font: 600 20px 'Segoe UI', Ubuntu, Sans-Serif; fill: #c9d1d9; }
    .stat-label { font: 400 13px 'Segoe UI', Ubuntu, Sans-Serif; fill: #8b949e; }
    .stat-value { font: 600 18px 'Segoe UI', Ubuntu, Sans-Serif; fill: #c9d1d9; }
    .stat-value-small { font: 600 14px 'Segoe UI', Ubuntu, Sans-Serif; fill: #c9d1d9; }
    .section-title { font: 600 14px 'Segoe UI', Ubuntu, Sans-Serif; fill: #8b949e; }
    .model-label { font: 400 12px 'Segoe UI', Ubuntu, Sans-Serif; fill: #8b949e; }
    .footer { font: 400 11px 'Segoe UI', Ubuntu, Sans-Serif; fill: #8b949e; }
  </style>

  <!-- Background -->
  <rect x="0.5" y="0.5" width="899" height="409" rx="4.5" fill="#0d1117" stroke="#30363d"/>

  <!-- Title -->
  <text x="25" y="35" class="title">🎸 VibeDashboard</text>

  <!-- Stats Row -->
  <g transform="translate(25, 60)">
    <g>
      <text class="stat-label">Total Tokens</text>
      <text y="22" class="stat-value">4.9B</text>
    </g>
    <g transform="translate(150, 0)">
      <text class="stat-label">Total Cost</text>
      <text y="22" class="stat-value">$3621.02</text>
    </g>
    <g transform="translate(320, 0)">
      <text class="stat-label">📅 Today</text>
      <text y="22" class="stat-value-small">2.4M / $3.01</text>
    </g>
    <g transform="translate(510, 0)">
      <text class="stat-label">📊 This Week</text>
      <text y="22" class="stat-value-small">1B / $693.38</text>
    </g>
    <g transform="translate(710, 0)">
      <text class="stat-label">📈 This Month</text>
      <text y="22" class="stat-value-small">4.1B / $2999.26</text>
    </g>
  </g>
  <!-- Weekly Usage Chart -->
  <g transform="translate(25, 105)">
    <rect x="0" y="0" width="850" height="100" rx="4" fill="#161b22"/>
    <text x="45" y="15" text-anchor="end" class="model-label">493.6M</text>
    <text x="45" y="52.5" text-anchor="end" class="model-label">246.8M</text>
    <text x="45" y="90" text-anchor="end" class="model-label">0</text>
    <line x1="50" y1="5" x2="50" y2="80" stroke="#30363d" stroke-width="1"/>
    <rect x="60" y="76.20257397329937" width="49" height="3.7974260267006406" rx="3" fill="#58a6ff"/>
    <text x="84.5" y="95" text-anchor="middle" class="model-label">04/16</text>
    <rect x="115" y="65.37181517510493" width="49" height="14.628184824895078" rx="3" fill="#58a6ff"/>
    <text x="139.5" y="95" text-anchor="middle" class="model-label">04/17</text>
    <rect x="170" y="41.09541976119038" width="49" height="38.90458023880962" rx="3" fill="#58a6ff"/>
    <text x="194.5" y="95" text-anchor="middle" class="model-label">04/18</text>
    <rect x="225" y="38.101034969203425" width="49" height="41.898965030796575" rx="3" fill="#58a6ff"/>
    <text x="249.5" y="95" text-anchor="middle" class="model-label">04/19</text>
    <rect x="280" y="51.84918018967838" width="49" height="28.15081981032162" rx="3" fill="#58a6ff"/>
    <text x="304.5" y="95" text-anchor="middle" class="model-label">04/20</text>
    <rect x="335" y="5" width="49" height="75" rx="3" fill="#58a6ff"/>
    <text x="359.5" y="95" text-anchor="middle" class="model-label">04/21</text>
    <rect x="390" y="37.22712385575672" width="49" height="42.77287614424328" rx="3" fill="#58a6ff"/>
    <text x="414.5" y="95" text-anchor="middle" class="model-label">04/22</text>
    <rect x="445" y="77.42453688046403" width="49" height="2.575463119535967" rx="3" fill="#58a6ff"/>
    <text x="469.5" y="95" text-anchor="middle" class="model-label">04/23</text>
    <rect x="500" y="75.77250523898486" width="49" height="4.227494761015137" rx="3" fill="#58a6ff"/>
    <text x="524.5" y="95" text-anchor="middle" class="model-label">04/24</text>
    <rect x="555" y="49.742523458792775" width="49" height="30.25747654120722" rx="3" fill="#58a6ff"/>
    <text x="579.5" y="95" text-anchor="middle" class="model-label">04/25</text>
    <rect x="610" y="24.75044276264442" width="49" height="55.24955723735558" rx="3" fill="#58a6ff"/>
    <text x="634.5" y="95" text-anchor="middle" class="model-label">04/26</text>
    <rect x="665" y="61.426489448430644" width="49" height="18.573510551569353" rx="3" fill="#58a6ff"/>
    <text x="689.5" y="95" text-anchor="middle" class="model-label">04/27</text>
    <rect x="720" y="78" width="49" height="2" rx="3" fill="#58a6ff"/>
    <text x="744.5" y="95" text-anchor="middle" class="model-label">04/28</text>
    <rect x="775" y="78" width="49" height="2" rx="3" fill="#58a6ff"/>
    <text x="799.5" y="95" text-anchor="middle" class="model-label">04/29</text>
  </g>
  <!-- Model Breakdown -->
  <g transform="translate(25, 220)">
    <text class="section-title">🤖 Model Usage</text>
    <g transform="translate(0, 18)">
      <rect x="0" y="2" width="670" height="10" rx="3" fill="#21262d"/>
      <rect x="0" y="2" width="341.7" height="10" rx="3" fill="#58a6ff"/>
      <text x="680" y="11" class="model-label">4-6 51% ($1858.57)</text>
    </g>
    <g transform="translate(0, 38)">
      <rect x="0" y="2" width="670" height="10" rx="3" fill="#21262d"/>
      <rect x="0" y="2" width="281.4" height="10" rx="3" fill="#58a6ff"/>
      <text x="680" y="11" class="model-label">4-7 42% ($1538.01)</text>
    </g>
    <g transform="translate(0, 58)">
      <rect x="0" y="2" width="670" height="10" rx="3" fill="#21262d"/>
      <rect x="0" y="2" width="20.099999999999998" height="10" rx="3" fill="#58a6ff"/>
      <text x="680" y="11" class="model-label">opus-4.5 3% ($105.18)</text>
    </g>
    <g transform="translate(0, 78)">
      <rect x="0" y="2" width="670" height="10" rx="3" fill="#21262d"/>
      <rect x="0" y="2" width="13.4" height="10" rx="3" fill="#58a6ff"/>
      <text x="680" y="11" class="model-label">4-6 2% ($76.77)</text>
    </g>
    <g transform="translate(0, 98)">
      <rect x="0" y="2" width="670" height="10" rx="3" fill="#21262d"/>
      <rect x="0" y="2" width="6.7" height="10" rx="3" fill="#58a6ff"/>
      <text x="680" y="11" class="model-label">haiku-4.5 1% ($37.39)</text>
    </g>
  </g>
  <text x="25" y="390" class="footer">Updated: 2026-04-29 14:14 UTC • Powered by <a href="https://github.com/mjyoo2/VibeDashboard" target="_blank">VibeDashboard</a></text>
</svg>