<svg xmlns="http://www.w3.org/2000/svg" width="495" height="195" viewBox="0 0 495 195">
  <style>
    .title { font: 600 18px 'Segoe UI', Ubuntu, Sans-Serif; fill: #c9d1d9; }
    .stat-label { font: 400 12px 'Segoe UI', Ubuntu, Sans-Serif; fill: #8b949e; }
    .stat-value { font: 600 16px 'Segoe UI', Ubuntu, Sans-Serif; fill: #c9d1d9; }
    .section-title { font: 600 12px 'Segoe UI', Ubuntu, Sans-Serif; fill: #8b949e; }
    .model-label { font: 400 11px 'Segoe UI', Ubuntu, Sans-Serif; fill: #8b949e; }
    .footer { font: 400 10px 'Segoe UI', Ubuntu, Sans-Serif; fill: #8b949e; }
  </style>

  <!-- Background -->
  <rect x="0.5" y="0.5" width="494" height="194" rx="4.5" fill="#0d1117" stroke="#30363d"/>

  <!-- Title -->
  <text x="25" y="35" class="title">🎸 Vibe Coding Dashboard</text>

  <!-- Stats Row -->
  <g transform="translate(25, 55)">
    <g>
      <text class="stat-label">Total Tokens</text>
      <text y="20" class="stat-value">5.2M</text>
    </g>
    <g transform="translate(120, 0)">
      <text class="stat-label">Total Cost</text>
      <text y="20" class="stat-value">$3.27</text>
    </g>
    <g transform="translate(240, 0)">
      <text class="stat-label">Daily Average</text>
      <text y="20" class="stat-value">1.7M / $1.09</text>
    </g>
  </g>
  <!-- Weekly Usage Chart -->
  <g transform="translate(25, 95)">
    <rect x="0" y="0" width="445" height="40" rx="3" fill="#161b22"/>
    <rect x="5" y="0" width="141" height="25" rx="2" fill="#58a6ff"/>
    <text x="75.5" y="37" text-anchor="middle" class="model-label">08</text>
    <rect x="150" y="22.066279334860738" width="141" height="2.9337206651392633" rx="2" fill="#58a6ff"/>
    <text x="220.5" y="37" text-anchor="middle" class="model-label">17</text>
    <rect x="295" y="24.968857985375568" width="141" height="0.031142014624430826" rx="2" fill="#58a6ff"/>
    <text x="365.5" y="37" text-anchor="middle" class="model-label">07</text>
  </g>
  <!-- Model Breakdown -->
  <g transform="translate(25, 145)">
    <g transform="translate(0, 0)">
      <rect x="0" y="2" width="345" height="8" rx="2" fill="#21262d"/>
      <rect x="0" y="2" width="282.9" height="8" rx="2" fill="#58a6ff"/>
      <text x="353" y="10" class="model-label">sonnet-4 82%</text>
    </g>
    <g transform="translate(0, 16)">
      <rect x="0" y="2" width="345" height="8" rx="2" fill="#21262d"/>
      <rect x="0" y="2" width="62.099999999999994" height="8" rx="2" fill="#58a6ff"/>
      <text x="353" y="10" class="model-label">opus-4 18%</text>
    </g>
    <g transform="translate(0, 32)">
      <rect x="0" y="2" width="345" height="8" rx="2" fill="#21262d"/>
      <rect x="0" y="2" width="3.45" height="8" rx="2" fill="#58a6ff"/>
      <text x="353" y="10" class="model-label">haiku-4 1%</text>
    </g>
  </g>
  <text x="25" y="180" class="footer">Updated: 2026-01-14 01:52 UTC</text>
</svg>